<mxfile host="app.diagrams.net" modified="2023-10-10T03:21:23.141Z" agent="Mozilla/5.0 (Windows NT 10.0; Win64; x64) AppleWebKit/537.36 (KHTML, like Gecko) Chrome/117.0.0.0 Safari/537.36" etag="mZuH5HXhjAFygEYpXdXn" version="22.0.4" type="github">
  <diagram name="Halaman-1" id="enKABoG6bFa33WdArh7g">
    <mxGraphModel dx="897" dy="562" grid="1" gridSize="10" guides="1" tooltips="1" connect="1" arrows="1" fold="1" page="1" pageScale="1" pageWidth="827" pageHeight="1169" math="0" shadow="0">
      <root>
        <mxCell id="0" />
        <mxCell id="1" parent="0" />
        <mxCell id="Vh22mIxF5PvAST5QgVq2-4" value="" style="rounded=0;whiteSpace=wrap;html=1;rotation=-90;" vertex="1" parent="1">
          <mxGeometry x="95.86" y="429.51" width="603.97" height="296.5" as="geometry" />
        </mxCell>
        <mxCell id="Vh22mIxF5PvAST5QgVq2-8" value="&lt;font style=&quot;font-size: 14px;&quot;&gt;Anggota&lt;/font&gt;" style="shape=umlActor;verticalLabelPosition=bottom;verticalAlign=top;html=1;outlineConnect=0;" vertex="1" parent="1">
          <mxGeometry x="60" y="505" width="80" height="160" as="geometry" />
        </mxCell>
        <mxCell id="Vh22mIxF5PvAST5QgVq2-9" value="&lt;font style=&quot;font-size: 14px;&quot;&gt;Pustakawan&lt;/font&gt;" style="shape=umlActor;verticalLabelPosition=bottom;verticalAlign=top;html=1;outlineConnect=0;" vertex="1" parent="1">
          <mxGeometry x="680" y="505" width="80" height="160" as="geometry" />
        </mxCell>
        <mxCell id="Vh22mIxF5PvAST5QgVq2-11" value="Book Search tool" style="text;html=1;strokeColor=none;fillColor=none;align=center;verticalAlign=middle;whiteSpace=wrap;rounded=0;fontSize=18;fontStyle=1" vertex="1" parent="1">
          <mxGeometry x="310.95000000000005" y="290" width="173.78" height="30" as="geometry" />
        </mxCell>
        <mxCell id="Vh22mIxF5PvAST5QgVq2-14" value="pencarian buku" style="ellipse;whiteSpace=wrap;html=1;fontSize=15;" vertex="1" parent="1">
          <mxGeometry x="296.21999999999997" y="730" width="203.24" height="105" as="geometry" />
        </mxCell>
        <mxCell id="Vh22mIxF5PvAST5QgVq2-50" value="isi data buku" style="ellipse;whiteSpace=wrap;html=1;fontSize=15;" vertex="1" parent="1">
          <mxGeometry x="296.22" y="340" width="203.24" height="105" as="geometry" />
        </mxCell>
        <mxCell id="Vh22mIxF5PvAST5QgVq2-51" value="isi data rak buku" style="ellipse;whiteSpace=wrap;html=1;fontSize=15;" vertex="1" parent="1">
          <mxGeometry x="296.22" y="470" width="203.24" height="105" as="geometry" />
        </mxCell>
        <mxCell id="Vh22mIxF5PvAST5QgVq2-52" value="isi data kelompok buku" style="ellipse;whiteSpace=wrap;html=1;fontSize=15;" vertex="1" parent="1">
          <mxGeometry x="296.22" y="600" width="203.24" height="105" as="geometry" />
        </mxCell>
        <mxCell id="Vh22mIxF5PvAST5QgVq2-53" value="" style="endArrow=none;html=1;rounded=0;entryX=0;entryY=0.5;entryDx=0;entryDy=0;" edge="1" parent="1" target="Vh22mIxF5PvAST5QgVq2-14">
          <mxGeometry width="50" height="50" relative="1" as="geometry">
            <mxPoint x="150" y="560" as="sourcePoint" />
            <mxPoint x="306" y="402" as="targetPoint" />
            <Array as="points">
              <mxPoint x="260" y="560" />
            </Array>
          </mxGeometry>
        </mxCell>
        <mxCell id="Vh22mIxF5PvAST5QgVq2-54" value="" style="endArrow=none;html=1;rounded=0;exitX=1;exitY=0.5;exitDx=0;exitDy=0;" edge="1" parent="1" source="Vh22mIxF5PvAST5QgVq2-50">
          <mxGeometry width="50" height="50" relative="1" as="geometry">
            <mxPoint x="560" y="538" as="sourcePoint" />
            <mxPoint x="670" y="550" as="targetPoint" />
          </mxGeometry>
        </mxCell>
        <mxCell id="Vh22mIxF5PvAST5QgVq2-55" value="" style="endArrow=none;html=1;rounded=0;exitX=1;exitY=0.5;exitDx=0;exitDy=0;" edge="1" parent="1" source="Vh22mIxF5PvAST5QgVq2-51">
          <mxGeometry width="50" height="50" relative="1" as="geometry">
            <mxPoint x="509" y="402" as="sourcePoint" />
            <mxPoint x="670" y="560" as="targetPoint" />
          </mxGeometry>
        </mxCell>
        <mxCell id="Vh22mIxF5PvAST5QgVq2-56" value="" style="endArrow=none;html=1;rounded=0;exitX=1;exitY=0.5;exitDx=0;exitDy=0;" edge="1" parent="1" source="Vh22mIxF5PvAST5QgVq2-52">
          <mxGeometry width="50" height="50" relative="1" as="geometry">
            <mxPoint x="509" y="533" as="sourcePoint" />
            <mxPoint x="670" y="570" as="targetPoint" />
          </mxGeometry>
        </mxCell>
      </root>
    </mxGraphModel>
  </diagram>
</mxfile>
